PathFileType	4	(X/Y/Z)	c:/Users/goper/Files/vsCode/490R/osim_files/C15/C15_Slow_03.trc
DataRate	CameraRate	NumFrames	NumMarkers	Units                	OrigDataRate	OrigDataStartFrame	OrigNumFrames
250.00	250.00	10	36	mm	250.0	3487	3984
                Frame#	Time	LPSIS			LASIS			LTH1			LTH2			LTH3			LTH4			LLFE			LMFE			LSH1			LSH2			LSH3			LSH4			LLMAL			LMMAL			LCAL			LMTP5			LTOE			LMTP1			RPSIS			RASIS			RTH1			RTH2			RTH3			RTH4			RLFE			RMFE			RSH1			RSH2			RSH3			RSH4			RLMAL			RMMAL			RCAL			RMTP1			RTOE			RMTP5		
		X1	Y1	Z1	X2	Y2	Z2	X3	Y3	Z3	X4	Y4	Z4	X5	Y5	Z5	X6	Y6	Z6	X7	Y7	Z7	X8	Y8	Z8	X9	Y9	Z9	X10	Y10	Z10	X11	Y11	Z11	X12	Y12	Z12	X13	Y13	Z13	X14	Y14	Z14	X15	Y15	Z15	X16	Y16	Z16	X17	Y17	Z17	X18	Y18	Z18	X19	Y19	Z19	X20	Y20	Z20	X21	Y21	Z21	X22	Y22	Z22	X23	Y23	Z23	X24	Y24	Z24	X25	Y25	Z25	X26	Y26	Z26	X27	Y27	Z27	X28	Y28	Z28	X29	Y29	Z29	X30	Y30	Z30	X31	Y31	Z31	X32	Y32	Z32	X33	Y33	Z33	X34	Y34	Z34	X35	Y35	Z35	X36	Y36	Z36

3487	13.94400	0.00000	0.00000	0.00000	-3748.82031	1004.14423	280.71487	0.00000	0.00000	0.00000	0.00000	0.00000	0.00000	-3815.43506	641.29846	352.70560	-3831.86353	599.37122	341.58109	-3824.31519	512.43231	311.67007	-3839.02808	501.26910	191.75616	0.00000	0.00000	0.00000	0.00000	0.00000	0.00000	-3851.27148	407.17307	323.52286	0.00000	0.00000	0.00000	0.00000	0.00000	0.00000	0.00000	0.00000	0.00000	-3689.27881	148.86423	95.76165	0.00000	0.00000	0.00000	-754.75543	734.91858	2361.42456	0.00000	0.00000	0.00000	0.00000	0.00000	0.00000	-3719.18799	1002.75659	34.63132	-3619.15625	639.07739	3.41019	0.00000	0.00000	0.00000	-3676.58032	630.26056	17.04136	-3664.75781	584.45648	24.08501	-3606.02075	498.28073	45.58494	0.00000	0.00000	0.00000	-3501.26685	412.11270	38.50481	0.00000	0.00000	0.00000	-3557.61108	387.91333	36.07624	-3539.54639	350.59122	34.14892	-3451.46509	110.51462	117.99004	0.00000	0.00000	0.00000	-3383.44849	86.83847	168.14618	0.00000	0.00000	0.00000	-3619.51880	69.68513	146.55760	0.00000	0.00000	0.00000
3488	13.94800	0.00000	0.00000	0.00000	-3752.85547	1003.66974	280.39743	0.00000	0.00000	0.00000	0.00000	0.00000	0.00000	-3818.42920	640.40045	352.35690	-3834.75244	598.40961	341.25259	-3827.22681	511.60144	310.80075	-3842.42700	500.91626	190.79483	0.00000	0.00000	0.00000	0.00000	0.00000	0.00000	-3855.08813	406.55145	322.19315	0.00000	0.00000	0.00000	0.00000	0.00000	0.00000	0.00000	0.00000	0.00000	-3689.29272	148.82545	95.75578	0.00000	0.00000	0.00000	-754.74249	734.89154	2361.42773	0.00000	0.00000	0.00000	0.00000	0.00000	0.00000	-3722.46851	1002.40820	34.38125	-3621.65723	638.93304	3.28890	0.00000	0.00000	0.00000	-3679.01172	629.82812	16.66423	-3667.12720	584.10516	23.74281	-3608.47803	498.12653	45.25211	0.00000	0.00000	0.00000	-3503.17261	412.37305	38.47157	-3491.47803	368.19907	38.31012	-3559.38013	387.87756	35.94521	-3541.04492	350.63806	34.07512	-3451.87427	111.01433	117.95841	0.00000	0.00000	0.00000	-3383.73486	87.55514	168.10687	0.00000	0.00000	0.00000	-3619.55469	69.64007	146.50369	0.00000	0.00000	0.00000
3489	13.95200	0.00000	0.00000	0.00000	-3756.88086	1003.19342	280.06393	0.00000	0.00000	0.00000	0.00000	0.00000	0.00000	-3821.71167	639.04913	351.25455	-3837.71582	597.49536	340.85596	-3830.19409	510.75137	309.88193	-3845.79883	500.61072	189.84573	0.00000	0.00000	0.00000	0.00000	0.00000	0.00000	-3858.95874	405.96182	320.83496	0.00000	0.00000	0.00000	0.00000	0.00000	0.00000	0.00000	0.00000	0.00000	-3689.27515	148.78278	95.75414	0.00000	0.00000	0.00000	-754.73541	734.85663	2361.42505	0.00000	0.00000	0.00000	0.00000	0.00000	0.00000	-3725.77222	1002.03595	34.11523	-3624.24170	638.70618	3.12940	0.00000	0.00000	0.00000	-3681.60303	629.48834	16.31851	-3669.58789	583.73322	23.39489	-3610.94458	497.86096	45.02567	0.00000	0.00000	0.00000	-3505.19116	412.65527	38.38643	0.00000	0.00000	0.00000	-3561.16431	387.80676	35.83784	-3542.56812	350.59070	34.03808	-3452.28027	111.54547	117.89447	0.00000	0.00000	0.00000	-3384.00122	88.21889	168.10350	0.00000	0.00000	0.00000	-3619.56030	69.56892	146.46825	0.00000	0.00000	0.00000
3490	13.95600	0.00000	0.00000	0.00000	-3760.89819	1002.73553	279.73904	0.00000	0.00000	0.00000	0.00000	0.00000	0.00000	-3824.89551	638.15375	350.96124	-3840.71509	596.60028	340.39163	-3833.31201	510.02744	308.94571	-3849.27710	500.35172	188.88683	0.00000	0.00000	0.00000	-3840.62256	338.56631	322.16965	-3862.74121	405.38052	319.47556	0.00000	0.00000	0.00000	0.00000	0.00000	0.00000	0.00000	0.00000	0.00000	-3689.28613	148.75974	95.75279	0.00000	0.00000	0.00000	-754.79443	734.78729	2361.45532	0.00000	0.00000	0.00000	0.00000	0.00000	0.00000	-3729.08276	1001.66425	33.82944	-3626.82544	638.48578	2.99032	0.00000	0.00000	0.00000	-3684.26929	629.14288	16.02086	-3672.17798	583.38721	23.11529	-3613.54858	497.69482	44.73374	0.00000	0.00000	0.00000	-3507.21509	412.87552	38.36222	0.00000	0.00000	0.00000	-3563.07275	387.75204	35.74381	-3544.27295	350.66110	33.90368	-3452.60229	112.04458	117.82958	0.00000	0.00000	0.00000	-3384.27197	88.83929	168.10672	0.00000	0.00000	0.00000	-3619.60840	69.55732	146.41785	0.00000	0.00000	0.00000
3491	13.96000	0.00000	0.00000	0.00000	-3764.93652	1002.25311	279.45633	0.00000	0.00000	0.00000	0.00000	0.00000	0.00000	-3828.08594	637.33954	350.57977	-3843.81299	595.79034	339.84793	-3836.42529	509.34595	307.97751	-3852.81299	500.11877	187.92136	0.00000	0.00000	0.00000	0.00000	0.00000	0.00000	-3866.50269	404.79440	318.15543	0.00000	0.00000	0.00000	0.00000	0.00000	0.00000	0.00000	0.00000	0.00000	-3689.26831	148.71422	95.75250	0.00000	0.00000	0.00000	-754.77917	734.81824	2361.44238	0.00000	0.00000	0.00000	0.00000	0.00000	0.00000	-3732.52246	1001.32819	33.59225	-3629.53833	638.27631	2.89709	0.00000	0.00000	0.00000	-3686.95630	628.76923	15.66884	-3674.79541	583.03992	22.79245	-3616.13501	497.46829	44.42365	0.00000	0.00000	0.00000	-3509.32300	413.10785	38.28981	-3496.70459	369.12485	38.16589	-3564.93359	387.68274	35.68578	-3546.01416	350.79025	33.83185	-3453.02930	112.61726	117.76469	0.00000	0.00000	0.00000	-3384.64160	89.71701	168.05045	0.00000	0.00000	0.00000	-3619.61548	69.51025	146.38385	0.00000	0.00000	0.00000
3492	13.96400	0.00000	0.00000	0.00000	-3769.00781	1001.80737	279.21344	0.00000	0.00000	0.00000	0.00000	0.00000	0.00000	-3831.43237	636.63031	350.15533	-3846.99048	594.95154	339.25113	-3839.63379	508.63397	306.96109	-3856.34204	499.90433	186.95288	0.00000	0.00000	0.00000	0.00000	0.00000	0.00000	-3870.42285	404.33301	316.77792	0.00000	0.00000	0.00000	0.00000	0.00000	0.00000	0.00000	0.00000	0.00000	-3689.27148	148.68431	95.72247	0.00000	0.00000	0.00000	-754.76385	734.86206	2361.43970	0.00000	0.00000	0.00000	0.00000	0.00000	0.00000	-3736.02197	1001.00470	33.36933	-3632.27686	638.03003	2.77101	0.00000	0.00000	0.00000	-3689.73267	628.36896	15.39137	-3677.38306	582.62604	22.52420	-3618.85327	497.25656	44.16701	0.00000	0.00000	0.00000	-3511.55029	413.38986	38.16269	0.00000	0.00000	0.00000	-3566.90454	387.54819	35.62053	-3547.80981	350.86871	33.70111	-3453.44922	113.17027	117.64025	0.00000	0.00000	0.00000	-3385.00830	90.57251	168.04854	0.00000	0.00000	0.00000	-3619.61987	69.44821	146.35818	0.00000	0.00000	0.00000
3493	13.96800	0.00000	0.00000	0.00000	-3773.09424	1001.33191	278.94705	0.00000	0.00000	0.00000	0.00000	0.00000	0.00000	-3834.90625	635.91821	349.74173	-3850.25635	594.18481	338.58322	-3842.98535	507.97479	305.95135	-3860.01929	499.75281	185.94241	0.00000	0.00000	0.00000	0.00000	0.00000	0.00000	-3874.25977	403.78741	315.42966	0.00000	0.00000	0.00000	0.00000	0.00000	0.00000	0.00000	0.00000	0.00000	-3689.28467	148.63042	95.72176	0.00000	0.00000	0.00000	-754.77496	734.87653	2361.43433	0.00000	0.00000	0.00000	0.00000	0.00000	0.00000	-3739.59180	1000.64697	33.16062	-3635.13989	637.81183	2.67857	0.00000	0.00000	0.00000	-3692.59180	627.99597	15.09348	-3680.24536	582.30530	22.23561	-3621.72412	497.09311	43.78518	0.00000	0.00000	0.00000	-3513.85791	413.59268	38.02918	0.00000	0.00000	0.00000	-3568.92896	387.46948	35.50125	-3549.53979	350.86490	33.64329	-3453.90161	113.77068	117.53086	0.00000	0.00000	0.00000	-3385.38989	91.43578	168.05125	0.00000	0.00000	0.00000	-3619.62524	69.38603	146.31908	0.00000	0.00000	0.00000
3494	13.97200	0.00000	0.00000	0.00000	-3777.17627	1000.86322	278.69092	0.00000	0.00000	0.00000	0.00000	0.00000	0.00000	-3838.41235	635.21216	349.26535	-3853.63013	593.46643	337.87857	-3846.42578	507.38669	304.91254	-3863.67773	499.57632	184.95615	0.00000	0.00000	0.00000	0.00000	0.00000	0.00000	-3878.06982	403.24500	314.08838	0.00000	0.00000	0.00000	0.00000	0.00000	0.00000	0.00000	0.00000	0.00000	-3689.22729	148.54988	95.71043	0.00000	0.00000	0.00000	-754.81433	734.91016	2361.43140	0.00000	0.00000	0.00000	0.00000	0.00000	0.00000	-3743.05615	1000.19916	32.89617	-3637.94165	637.53180	2.59038	0.00000	0.00000	0.00000	-3695.39795	627.54034	14.85941	-3682.99341	581.87714	21.95853	-3624.55615	496.85950	43.48180	0.00000	0.00000	0.00000	-3516.39941	413.86182	37.79522	-3502.55786	369.41452	34.57190	-3571.06299	387.39105	35.34846	-3551.36206	350.93011	33.57062	-3454.36719	114.40723	117.44347	0.00000	0.00000	0.00000	-3385.79883	92.38651	168.00867	0.00000	0.00000	0.00000	-3619.65063	69.33251	146.27438	0.00000	0.00000	0.00000
3495	13.97600	0.00000	0.00000	0.00000	-3781.32983	1000.40289	278.43631	0.00000	0.00000	0.00000	0.00000	0.00000	0.00000	-3842.02588	634.60333	348.70728	-3857.08691	592.78271	337.07227	-3849.88452	506.79987	303.87646	-3867.34375	499.36673	183.96140	0.00000	0.00000	0.00000	0.00000	0.00000	0.00000	-3881.89673	402.67685	312.77255	0.00000	0.00000	0.00000	0.00000	0.00000	0.00000	0.00000	0.00000	0.00000	-3689.24316	148.53101	95.68393	0.00000	0.00000	0.00000	-754.77771	734.95416	2361.41724	0.00000	0.00000	0.00000	0.00000	0.00000	0.00000	-3746.58667	999.78467	32.62911	-3640.94629	637.31158	2.49744	0.00000	0.00000	0.00000	-3698.41113	627.20093	14.60462	-3685.88770	581.53943	21.70797	-3627.48828	496.63281	43.15897	0.00000	0.00000	0.00000	-3518.93652	414.05865	37.64492	-3504.54712	369.72583	34.46115	-3573.19214	387.30991	35.27192	-3553.42578	351.12552	33.46667	-3454.77783	115.01664	117.30811	0.00000	0.00000	0.00000	-3386.22339	93.34116	167.87697	0.00000	0.00000	0.00000	-3619.68457	69.28777	146.20168	0.00000	0.00000	0.00000
3496	13.98000	0.00000	0.00000	0.00000	-3785.48413	999.96741	278.21417	0.00000	0.00000	0.00000	0.00000	0.00000	0.00000	-3845.76685	634.02832	348.12564	-3860.71021	592.18787	336.23434	-3853.47803	506.25970	302.86694	-3871.20557	499.28244	182.92789	0.00000	0.00000	0.00000	0.00000	0.00000	0.00000	-3885.80493	402.16489	311.49280	0.00000	0.00000	0.00000	0.00000	0.00000	0.00000	0.00000	0.00000	0.00000	-3689.25244	148.50159	95.67453	0.00000	0.00000	0.00000	-754.76630	734.96112	2361.42822	0.00000	0.00000	0.00000	0.00000	0.00000	0.00000	-3750.26709	999.41541	32.44754	-3643.92163	637.06439	2.42406	0.00000	0.00000	0.00000	-3701.32373	626.79468	14.46610	-3688.81079	581.16333	21.48224	-3630.47119	496.41913	42.86215	0.00000	0.00000	0.00000	-3521.62012	414.22852	37.46821	-3504.85718	370.58850	35.76423	-3575.35083	387.22321	35.15538	-3555.36230	351.17035	33.36795	-3455.34253	115.72115	117.16364	0.00000	0.00000	0.00000	-3386.54688	94.32830	167.82971	0.00000	0.00000	0.00000	-3619.78491	69.32552	146.09132	0.00000	0.00000	0.00000
